<mxfile host="app.diagrams.net" agent="Mozilla/5.0 (X11; Linux x86_64; rv:129.0) Gecko/20100101 Firefox/129.0" version="24.7.7">
  <diagram name="Page-1" id="a7904f86-f2b4-8e86-fa97-74104820619b">
    <mxGraphModel dx="1158" dy="936" grid="1" gridSize="10" guides="1" tooltips="1" connect="1" arrows="1" fold="1" page="1" pageScale="1" pageWidth="1100" pageHeight="850" background="none" math="0" shadow="0">
      <root>
        <mxCell id="0" />
        <mxCell id="1" parent="0" />
        <mxCell id="aXAF0FD7jm9cenvR7DQU-1" value="&lt;b&gt;Operador&lt;/b&gt;" style="swimlane;fontStyle=0;childLayout=stackLayout;horizontal=1;startSize=30;horizontalStack=0;resizeParent=1;resizeParentMax=0;resizeLast=0;collapsible=1;marginBottom=0;whiteSpace=wrap;html=1;" vertex="1" parent="1">
          <mxGeometry x="240" y="40" width="160" height="150" as="geometry" />
        </mxCell>
        <mxCell id="aXAF0FD7jm9cenvR7DQU-2" value="Nome" style="text;strokeColor=none;fillColor=none;align=left;verticalAlign=middle;spacingLeft=4;spacingRight=4;overflow=hidden;points=[[0,0.5],[1,0.5]];portConstraint=eastwest;rotatable=0;whiteSpace=wrap;html=1;" vertex="1" parent="aXAF0FD7jm9cenvR7DQU-1">
          <mxGeometry y="30" width="160" height="30" as="geometry" />
        </mxCell>
        <mxCell id="aXAF0FD7jm9cenvR7DQU-5" value="Email" style="text;strokeColor=none;fillColor=none;align=left;verticalAlign=middle;spacingLeft=4;spacingRight=4;overflow=hidden;points=[[0,0.5],[1,0.5]];portConstraint=eastwest;rotatable=0;whiteSpace=wrap;html=1;" vertex="1" parent="aXAF0FD7jm9cenvR7DQU-1">
          <mxGeometry y="60" width="160" height="30" as="geometry" />
        </mxCell>
        <mxCell id="aXAF0FD7jm9cenvR7DQU-3" value="Senha" style="text;strokeColor=none;fillColor=none;align=left;verticalAlign=middle;spacingLeft=4;spacingRight=4;overflow=hidden;points=[[0,0.5],[1,0.5]];portConstraint=eastwest;rotatable=0;whiteSpace=wrap;html=1;" vertex="1" parent="aXAF0FD7jm9cenvR7DQU-1">
          <mxGeometry y="90" width="160" height="30" as="geometry" />
        </mxCell>
        <mxCell id="aXAF0FD7jm9cenvR7DQU-4" value="Nível" style="text;strokeColor=none;fillColor=none;align=left;verticalAlign=middle;spacingLeft=4;spacingRight=4;overflow=hidden;points=[[0,0.5],[1,0.5]];portConstraint=eastwest;rotatable=0;whiteSpace=wrap;html=1;" vertex="1" parent="aXAF0FD7jm9cenvR7DQU-1">
          <mxGeometry y="120" width="160" height="30" as="geometry" />
        </mxCell>
        <mxCell id="aXAF0FD7jm9cenvR7DQU-7" value="&lt;b&gt;Cidade&lt;br&gt;&lt;/b&gt;" style="swimlane;fontStyle=0;childLayout=stackLayout;horizontal=1;startSize=30;horizontalStack=0;resizeParent=1;resizeParentMax=0;resizeLast=0;collapsible=1;marginBottom=0;whiteSpace=wrap;html=1;" vertex="1" parent="1">
          <mxGeometry x="240" y="250" width="160" height="60" as="geometry" />
        </mxCell>
        <mxCell id="aXAF0FD7jm9cenvR7DQU-8" value="Nome" style="text;strokeColor=none;fillColor=none;align=left;verticalAlign=middle;spacingLeft=4;spacingRight=4;overflow=hidden;points=[[0,0.5],[1,0.5]];portConstraint=eastwest;rotatable=0;whiteSpace=wrap;html=1;" vertex="1" parent="aXAF0FD7jm9cenvR7DQU-7">
          <mxGeometry y="30" width="160" height="30" as="geometry" />
        </mxCell>
        <mxCell id="aXAF0FD7jm9cenvR7DQU-16" value="" style="endArrow=classic;html=1;rounded=0;" edge="1" parent="1" source="aXAF0FD7jm9cenvR7DQU-7" target="aXAF0FD7jm9cenvR7DQU-1">
          <mxGeometry relative="1" as="geometry">
            <mxPoint x="410" y="270" as="sourcePoint" />
            <mxPoint x="570" y="270" as="targetPoint" />
          </mxGeometry>
        </mxCell>
        <mxCell id="aXAF0FD7jm9cenvR7DQU-17" value="Controla" style="edgeLabel;resizable=0;html=1;;align=center;verticalAlign=middle;" connectable="0" vertex="1" parent="aXAF0FD7jm9cenvR7DQU-16">
          <mxGeometry relative="1" as="geometry" />
        </mxCell>
        <mxCell id="aXAF0FD7jm9cenvR7DQU-18" value="1.1" style="edgeLabel;resizable=0;html=1;;align=left;verticalAlign=bottom;" connectable="0" vertex="1" parent="aXAF0FD7jm9cenvR7DQU-16">
          <mxGeometry x="-1" relative="1" as="geometry">
            <mxPoint x="10" as="offset" />
          </mxGeometry>
        </mxCell>
        <mxCell id="aXAF0FD7jm9cenvR7DQU-19" value="1.1" style="edgeLabel;resizable=0;html=1;;align=right;verticalAlign=bottom;rotation=0;" connectable="0" vertex="1" parent="aXAF0FD7jm9cenvR7DQU-16">
          <mxGeometry x="1" relative="1" as="geometry">
            <mxPoint x="-10" y="20" as="offset" />
          </mxGeometry>
        </mxCell>
        <mxCell id="aXAF0FD7jm9cenvR7DQU-22" value="&lt;b&gt;Bairro&lt;/b&gt;" style="swimlane;fontStyle=0;childLayout=stackLayout;horizontal=1;startSize=30;horizontalStack=0;resizeParent=1;resizeParentMax=0;resizeLast=0;collapsible=1;marginBottom=0;whiteSpace=wrap;html=1;" vertex="1" parent="1">
          <mxGeometry x="120" y="330" width="160" height="60" as="geometry" />
        </mxCell>
        <mxCell id="aXAF0FD7jm9cenvR7DQU-23" value="Nome" style="text;strokeColor=none;fillColor=none;align=left;verticalAlign=middle;spacingLeft=4;spacingRight=4;overflow=hidden;points=[[0,0.5],[1,0.5]];portConstraint=eastwest;rotatable=0;whiteSpace=wrap;html=1;" vertex="1" parent="aXAF0FD7jm9cenvR7DQU-22">
          <mxGeometry y="30" width="160" height="30" as="geometry" />
        </mxCell>
        <mxCell id="aXAF0FD7jm9cenvR7DQU-26" value="" style="endArrow=classic;html=1;rounded=0;edgeStyle=orthogonalEdgeStyle;entryX=0;entryY=0.5;entryDx=0;entryDy=0;" edge="1" parent="1" source="aXAF0FD7jm9cenvR7DQU-22" target="aXAF0FD7jm9cenvR7DQU-7">
          <mxGeometry relative="1" as="geometry">
            <mxPoint x="100" y="270" as="sourcePoint" />
            <mxPoint x="100" y="210" as="targetPoint" />
          </mxGeometry>
        </mxCell>
        <mxCell id="aXAF0FD7jm9cenvR7DQU-27" value="Tem" style="edgeLabel;resizable=0;html=1;;align=center;verticalAlign=middle;" connectable="0" vertex="1" parent="aXAF0FD7jm9cenvR7DQU-26">
          <mxGeometry relative="1" as="geometry">
            <mxPoint y="5" as="offset" />
          </mxGeometry>
        </mxCell>
        <mxCell id="aXAF0FD7jm9cenvR7DQU-28" value="0.*" style="edgeLabel;resizable=0;html=1;;align=left;verticalAlign=bottom;" connectable="0" vertex="1" parent="aXAF0FD7jm9cenvR7DQU-26">
          <mxGeometry x="-1" relative="1" as="geometry">
            <mxPoint x="10" as="offset" />
          </mxGeometry>
        </mxCell>
        <mxCell id="aXAF0FD7jm9cenvR7DQU-29" value="1.1" style="edgeLabel;resizable=0;html=1;;align=right;verticalAlign=bottom;rotation=0;" connectable="0" vertex="1" parent="aXAF0FD7jm9cenvR7DQU-26">
          <mxGeometry x="1" relative="1" as="geometry">
            <mxPoint x="-10" as="offset" />
          </mxGeometry>
        </mxCell>
        <mxCell id="aXAF0FD7jm9cenvR7DQU-31" value="&lt;b&gt;Unidade de Saúde&lt;br&gt;&lt;/b&gt;" style="swimlane;fontStyle=0;childLayout=stackLayout;horizontal=1;startSize=30;horizontalStack=0;resizeParent=1;resizeParentMax=0;resizeLast=0;collapsible=1;marginBottom=0;whiteSpace=wrap;html=1;" vertex="1" parent="1">
          <mxGeometry x="240" y="410" width="160" height="60" as="geometry" />
        </mxCell>
        <mxCell id="aXAF0FD7jm9cenvR7DQU-32" value="Nome" style="text;strokeColor=none;fillColor=none;align=left;verticalAlign=middle;spacingLeft=4;spacingRight=4;overflow=hidden;points=[[0,0.5],[1,0.5]];portConstraint=eastwest;rotatable=0;whiteSpace=wrap;html=1;" vertex="1" parent="aXAF0FD7jm9cenvR7DQU-31">
          <mxGeometry y="30" width="160" height="30" as="geometry" />
        </mxCell>
        <mxCell id="aXAF0FD7jm9cenvR7DQU-39" value="" style="endArrow=classic;html=1;rounded=0;edgeStyle=orthogonalEdgeStyle;exitX=0;exitY=0.5;exitDx=0;exitDy=0;" edge="1" parent="1" source="aXAF0FD7jm9cenvR7DQU-31" target="aXAF0FD7jm9cenvR7DQU-22">
          <mxGeometry relative="1" as="geometry">
            <mxPoint x="210" y="340" as="sourcePoint" />
            <mxPoint x="250" y="290" as="targetPoint" />
          </mxGeometry>
        </mxCell>
        <mxCell id="aXAF0FD7jm9cenvR7DQU-40" value="Tem" style="edgeLabel;resizable=0;html=1;;align=center;verticalAlign=middle;" connectable="0" vertex="1" parent="aXAF0FD7jm9cenvR7DQU-39">
          <mxGeometry relative="1" as="geometry">
            <mxPoint y="-5" as="offset" />
          </mxGeometry>
        </mxCell>
        <mxCell id="aXAF0FD7jm9cenvR7DQU-41" value="0.*" style="edgeLabel;resizable=0;html=1;;align=left;verticalAlign=bottom;" connectable="0" vertex="1" parent="aXAF0FD7jm9cenvR7DQU-39">
          <mxGeometry x="-1" relative="1" as="geometry">
            <mxPoint x="-20" as="offset" />
          </mxGeometry>
        </mxCell>
        <mxCell id="aXAF0FD7jm9cenvR7DQU-42" value="1.1" style="edgeLabel;resizable=0;html=1;;align=right;verticalAlign=bottom;rotation=0;" connectable="0" vertex="1" parent="aXAF0FD7jm9cenvR7DQU-39">
          <mxGeometry x="1" relative="1" as="geometry">
            <mxPoint x="-10" y="20" as="offset" />
          </mxGeometry>
        </mxCell>
        <mxCell id="aXAF0FD7jm9cenvR7DQU-48" value="&lt;div&gt;&lt;b&gt;Equipe&lt;/b&gt;&lt;/div&gt;" style="swimlane;fontStyle=0;childLayout=stackLayout;horizontal=1;startSize=30;horizontalStack=0;resizeParent=1;resizeParentMax=0;resizeLast=0;collapsible=1;marginBottom=0;whiteSpace=wrap;html=1;" vertex="1" parent="1">
          <mxGeometry x="240" y="530" width="160" height="60" as="geometry" />
        </mxCell>
        <mxCell id="aXAF0FD7jm9cenvR7DQU-49" value="Número da Equipe" style="text;strokeColor=none;fillColor=none;align=left;verticalAlign=middle;spacingLeft=4;spacingRight=4;overflow=hidden;points=[[0,0.5],[1,0.5]];portConstraint=eastwest;rotatable=0;whiteSpace=wrap;html=1;" vertex="1" parent="aXAF0FD7jm9cenvR7DQU-48">
          <mxGeometry y="30" width="160" height="30" as="geometry" />
        </mxCell>
        <mxCell id="aXAF0FD7jm9cenvR7DQU-50" value="" style="endArrow=classic;html=1;rounded=0;edgeStyle=orthogonalEdgeStyle;" edge="1" parent="1" source="aXAF0FD7jm9cenvR7DQU-48" target="aXAF0FD7jm9cenvR7DQU-31">
          <mxGeometry relative="1" as="geometry">
            <mxPoint x="250" y="450" as="sourcePoint" />
            <mxPoint x="210" y="400" as="targetPoint" />
          </mxGeometry>
        </mxCell>
        <mxCell id="aXAF0FD7jm9cenvR7DQU-51" value="Tem" style="edgeLabel;resizable=0;html=1;;align=center;verticalAlign=middle;" connectable="0" vertex="1" parent="aXAF0FD7jm9cenvR7DQU-50">
          <mxGeometry relative="1" as="geometry">
            <mxPoint y="5" as="offset" />
          </mxGeometry>
        </mxCell>
        <mxCell id="aXAF0FD7jm9cenvR7DQU-52" value="1.*" style="edgeLabel;resizable=0;html=1;;align=left;verticalAlign=bottom;" connectable="0" vertex="1" parent="aXAF0FD7jm9cenvR7DQU-50">
          <mxGeometry x="-1" relative="1" as="geometry">
            <mxPoint x="10" as="offset" />
          </mxGeometry>
        </mxCell>
        <mxCell id="aXAF0FD7jm9cenvR7DQU-53" value="1.1" style="edgeLabel;resizable=0;html=1;;align=right;verticalAlign=bottom;rotation=0;" connectable="0" vertex="1" parent="aXAF0FD7jm9cenvR7DQU-50">
          <mxGeometry x="1" relative="1" as="geometry">
            <mxPoint x="-10" y="20" as="offset" />
          </mxGeometry>
        </mxCell>
        <mxCell id="aXAF0FD7jm9cenvR7DQU-55" value="&lt;b&gt;Hospital&lt;/b&gt;" style="swimlane;fontStyle=0;childLayout=stackLayout;horizontal=1;startSize=30;horizontalStack=0;resizeParent=1;resizeParentMax=0;resizeLast=0;collapsible=1;marginBottom=0;whiteSpace=wrap;html=1;" vertex="1" parent="1">
          <mxGeometry x="650" y="250" width="160" height="60" as="geometry" />
        </mxCell>
        <mxCell id="aXAF0FD7jm9cenvR7DQU-56" value="Nome" style="text;strokeColor=none;fillColor=none;align=left;verticalAlign=middle;spacingLeft=4;spacingRight=4;overflow=hidden;points=[[0,0.5],[1,0.5]];portConstraint=eastwest;rotatable=0;whiteSpace=wrap;html=1;" vertex="1" parent="aXAF0FD7jm9cenvR7DQU-55">
          <mxGeometry y="30" width="160" height="30" as="geometry" />
        </mxCell>
        <mxCell id="aXAF0FD7jm9cenvR7DQU-64" value="&lt;b&gt;Gestante&lt;br&gt;&lt;/b&gt;" style="swimlane;fontStyle=0;childLayout=stackLayout;horizontal=1;startSize=30;horizontalStack=0;resizeParent=1;resizeParentMax=0;resizeLast=0;collapsible=1;marginBottom=0;whiteSpace=wrap;html=1;" vertex="1" parent="1">
          <mxGeometry x="500" y="530" width="170" height="300" as="geometry" />
        </mxCell>
        <mxCell id="aXAF0FD7jm9cenvR7DQU-74" value="Cpf" style="text;strokeColor=none;fillColor=none;align=left;verticalAlign=middle;spacingLeft=4;spacingRight=4;overflow=hidden;points=[[0,0.5],[1,0.5]];portConstraint=eastwest;rotatable=0;whiteSpace=wrap;html=1;" vertex="1" parent="aXAF0FD7jm9cenvR7DQU-64">
          <mxGeometry y="30" width="170" height="30" as="geometry" />
        </mxCell>
        <mxCell id="aXAF0FD7jm9cenvR7DQU-65" value="Nome" style="text;strokeColor=none;fillColor=none;align=left;verticalAlign=middle;spacingLeft=4;spacingRight=4;overflow=hidden;points=[[0,0.5],[1,0.5]];portConstraint=eastwest;rotatable=0;whiteSpace=wrap;html=1;" vertex="1" parent="aXAF0FD7jm9cenvR7DQU-64">
          <mxGeometry y="60" width="170" height="30" as="geometry" />
        </mxCell>
        <mxCell id="aXAF0FD7jm9cenvR7DQU-73" value="Data Nascimento" style="text;strokeColor=none;fillColor=none;align=left;verticalAlign=middle;spacingLeft=4;spacingRight=4;overflow=hidden;points=[[0,0.5],[1,0.5]];portConstraint=eastwest;rotatable=0;whiteSpace=wrap;html=1;" vertex="1" parent="aXAF0FD7jm9cenvR7DQU-64">
          <mxGeometry y="90" width="170" height="30" as="geometry" />
        </mxCell>
        <mxCell id="aXAF0FD7jm9cenvR7DQU-75" value="Vínculo" style="text;strokeColor=none;fillColor=none;align=left;verticalAlign=middle;spacingLeft=4;spacingRight=4;overflow=hidden;points=[[0,0.5],[1,0.5]];portConstraint=eastwest;rotatable=0;whiteSpace=wrap;html=1;" vertex="1" parent="aXAF0FD7jm9cenvR7DQU-64">
          <mxGeometry y="120" width="170" height="30" as="geometry" />
        </mxCell>
        <mxCell id="aXAF0FD7jm9cenvR7DQU-76" value="IG no Início do Pré-Natal" style="text;strokeColor=none;fillColor=none;align=left;verticalAlign=middle;spacingLeft=4;spacingRight=4;overflow=hidden;points=[[0,0.5],[1,0.5]];portConstraint=eastwest;rotatable=0;whiteSpace=wrap;html=1;" vertex="1" parent="aXAF0FD7jm9cenvR7DQU-64">
          <mxGeometry y="150" width="170" height="30" as="geometry" />
        </mxCell>
        <mxCell id="aXAF0FD7jm9cenvR7DQU-77" value="Data da Ultima Menstruação" style="text;strokeColor=none;fillColor=none;align=left;verticalAlign=middle;spacingLeft=4;spacingRight=4;overflow=hidden;points=[[0,0.5],[1,0.5]];portConstraint=eastwest;rotatable=0;whiteSpace=wrap;html=1;" vertex="1" parent="aXAF0FD7jm9cenvR7DQU-64">
          <mxGeometry y="180" width="170" height="30" as="geometry" />
        </mxCell>
        <mxCell id="aXAF0FD7jm9cenvR7DQU-78" value="Data Provável do Parto" style="text;strokeColor=none;fillColor=none;align=left;verticalAlign=middle;spacingLeft=4;spacingRight=4;overflow=hidden;points=[[0,0.5],[1,0.5]];portConstraint=eastwest;rotatable=0;whiteSpace=wrap;html=1;" vertex="1" parent="aXAF0FD7jm9cenvR7DQU-64">
          <mxGeometry y="210" width="170" height="30" as="geometry" />
        </mxCell>
        <mxCell id="aXAF0FD7jm9cenvR7DQU-80" value="Descrição" style="text;strokeColor=none;fillColor=none;align=left;verticalAlign=middle;spacingLeft=4;spacingRight=4;overflow=hidden;points=[[0,0.5],[1,0.5]];portConstraint=eastwest;rotatable=0;whiteSpace=wrap;html=1;" vertex="1" parent="aXAF0FD7jm9cenvR7DQU-64">
          <mxGeometry y="240" width="170" height="30" as="geometry" />
        </mxCell>
        <mxCell id="aXAF0FD7jm9cenvR7DQU-66" value="Numero CIS" style="text;strokeColor=none;fillColor=none;align=left;verticalAlign=middle;spacingLeft=4;spacingRight=4;overflow=hidden;points=[[0,0.5],[1,0.5]];portConstraint=eastwest;rotatable=0;whiteSpace=wrap;html=1;" vertex="1" parent="aXAF0FD7jm9cenvR7DQU-64">
          <mxGeometry y="270" width="170" height="30" as="geometry" />
        </mxCell>
        <mxCell id="aXAF0FD7jm9cenvR7DQU-82" value="" style="endArrow=classic;html=1;rounded=0;edgeStyle=orthogonalEdgeStyle;exitX=-0.011;exitY=0.099;exitDx=0;exitDy=0;exitPerimeter=0;" edge="1" parent="1" source="aXAF0FD7jm9cenvR7DQU-74" target="aXAF0FD7jm9cenvR7DQU-48">
          <mxGeometry relative="1" as="geometry">
            <mxPoint x="569.9999999999999" y="810" as="sourcePoint" />
            <mxPoint x="569.9999999999999" y="750" as="targetPoint" />
          </mxGeometry>
        </mxCell>
        <mxCell id="aXAF0FD7jm9cenvR7DQU-83" value="Atende" style="edgeLabel;resizable=0;html=1;;align=center;verticalAlign=middle;" connectable="0" vertex="1" parent="aXAF0FD7jm9cenvR7DQU-82">
          <mxGeometry relative="1" as="geometry" />
        </mxCell>
        <mxCell id="aXAF0FD7jm9cenvR7DQU-84" value="0.*" style="edgeLabel;resizable=0;html=1;;align=left;verticalAlign=bottom;" connectable="0" vertex="1" parent="aXAF0FD7jm9cenvR7DQU-82">
          <mxGeometry x="-1" relative="1" as="geometry">
            <mxPoint x="-20" as="offset" />
          </mxGeometry>
        </mxCell>
        <mxCell id="aXAF0FD7jm9cenvR7DQU-85" value="1.1" style="edgeLabel;resizable=0;html=1;;align=right;verticalAlign=bottom;rotation=0;" connectable="0" vertex="1" parent="aXAF0FD7jm9cenvR7DQU-82">
          <mxGeometry x="1" relative="1" as="geometry">
            <mxPoint x="20" y="20" as="offset" />
          </mxGeometry>
        </mxCell>
        <mxCell id="aXAF0FD7jm9cenvR7DQU-95" value="&lt;b&gt;Consulta Odontológica&lt;/b&gt;" style="swimlane;fontStyle=0;childLayout=stackLayout;horizontal=1;startSize=30;horizontalStack=0;resizeParent=1;resizeParentMax=0;resizeLast=0;collapsible=1;marginBottom=0;whiteSpace=wrap;html=1;" vertex="1" parent="1">
          <mxGeometry x="90" y="620" width="161" height="60" as="geometry" />
        </mxCell>
        <mxCell id="aXAF0FD7jm9cenvR7DQU-96" value="Estratificação Odontológica" style="text;strokeColor=none;fillColor=none;align=left;verticalAlign=middle;spacingLeft=4;spacingRight=4;overflow=hidden;points=[[0,0.5],[1,0.5]];portConstraint=eastwest;rotatable=0;whiteSpace=wrap;html=1;" vertex="1" parent="aXAF0FD7jm9cenvR7DQU-95">
          <mxGeometry y="30" width="161" height="30" as="geometry" />
        </mxCell>
        <mxCell id="aXAF0FD7jm9cenvR7DQU-98" value="&lt;b&gt;Infecção Tratado Urinário&lt;br&gt;&lt;/b&gt;" style="swimlane;fontStyle=0;childLayout=stackLayout;horizontal=1;startSize=30;horizontalStack=0;resizeParent=1;resizeParentMax=0;resizeLast=0;collapsible=1;marginBottom=0;whiteSpace=wrap;html=1;" vertex="1" parent="1">
          <mxGeometry x="270" y="630" width="160" height="120" as="geometry" />
        </mxCell>
        <mxCell id="aXAF0FD7jm9cenvR7DQU-99" value="Tratamento" style="text;strokeColor=none;fillColor=none;align=left;verticalAlign=middle;spacingLeft=4;spacingRight=4;overflow=hidden;points=[[0,0.5],[1,0.5]];portConstraint=eastwest;rotatable=0;whiteSpace=wrap;html=1;" vertex="1" parent="aXAF0FD7jm9cenvR7DQU-98">
          <mxGeometry y="30" width="160" height="30" as="geometry" />
        </mxCell>
        <mxCell id="aXAF0FD7jm9cenvR7DQU-100" value="Data Exame" style="text;strokeColor=none;fillColor=none;align=left;verticalAlign=middle;spacingLeft=4;spacingRight=4;overflow=hidden;points=[[0,0.5],[1,0.5]];portConstraint=eastwest;rotatable=0;whiteSpace=wrap;html=1;" vertex="1" parent="aXAF0FD7jm9cenvR7DQU-98">
          <mxGeometry y="60" width="160" height="30" as="geometry" />
        </mxCell>
        <mxCell id="aXAF0FD7jm9cenvR7DQU-101" value="Apresenta ITU" style="text;strokeColor=none;fillColor=none;align=left;verticalAlign=middle;spacingLeft=4;spacingRight=4;overflow=hidden;points=[[0,0.5],[1,0.5]];portConstraint=eastwest;rotatable=0;whiteSpace=wrap;html=1;" vertex="1" parent="aXAF0FD7jm9cenvR7DQU-98">
          <mxGeometry y="90" width="160" height="30" as="geometry" />
        </mxCell>
        <mxCell id="aXAF0FD7jm9cenvR7DQU-103" value="&lt;b&gt;Centro Especializado&lt;br&gt;&lt;/b&gt;" style="swimlane;fontStyle=0;childLayout=stackLayout;horizontal=1;startSize=30;horizontalStack=0;resizeParent=1;resizeParentMax=0;resizeLast=0;collapsible=1;marginBottom=0;whiteSpace=wrap;html=1;" vertex="1" parent="1">
          <mxGeometry x="240" y="840" width="160" height="90" as="geometry" />
        </mxCell>
        <mxCell id="aXAF0FD7jm9cenvR7DQU-104" value="(Re)Estratificação de Risco" style="text;strokeColor=none;fillColor=none;align=left;verticalAlign=middle;spacingLeft=4;spacingRight=4;overflow=hidden;points=[[0,0.5],[1,0.5]];portConstraint=eastwest;rotatable=0;whiteSpace=wrap;html=1;" vertex="1" parent="aXAF0FD7jm9cenvR7DQU-103">
          <mxGeometry y="30" width="160" height="30" as="geometry" />
        </mxCell>
        <mxCell id="aXAF0FD7jm9cenvR7DQU-105" value="Motivo" style="text;strokeColor=none;fillColor=none;align=left;verticalAlign=middle;spacingLeft=4;spacingRight=4;overflow=hidden;points=[[0,0.5],[1,0.5]];portConstraint=eastwest;rotatable=0;whiteSpace=wrap;html=1;" vertex="1" parent="aXAF0FD7jm9cenvR7DQU-103">
          <mxGeometry y="60" width="160" height="30" as="geometry" />
        </mxCell>
        <mxCell id="aXAF0FD7jm9cenvR7DQU-107" value="&lt;b&gt;Consulta&lt;br&gt;&lt;/b&gt;" style="swimlane;fontStyle=0;childLayout=stackLayout;horizontal=1;startSize=30;horizontalStack=0;resizeParent=1;resizeParentMax=0;resizeLast=0;collapsible=1;marginBottom=0;whiteSpace=wrap;html=1;" vertex="1" parent="1">
          <mxGeometry x="60" y="960" width="160" height="90" as="geometry" />
        </mxCell>
        <mxCell id="aXAF0FD7jm9cenvR7DQU-108" value="Numero da Consulta" style="text;strokeColor=none;fillColor=none;align=left;verticalAlign=middle;spacingLeft=4;spacingRight=4;overflow=hidden;points=[[0,0.5],[1,0.5]];portConstraint=eastwest;rotatable=0;whiteSpace=wrap;html=1;" vertex="1" parent="aXAF0FD7jm9cenvR7DQU-107">
          <mxGeometry y="30" width="160" height="30" as="geometry" />
        </mxCell>
        <mxCell id="aXAF0FD7jm9cenvR7DQU-109" value="Data da Consulta" style="text;strokeColor=none;fillColor=none;align=left;verticalAlign=middle;spacingLeft=4;spacingRight=4;overflow=hidden;points=[[0,0.5],[1,0.5]];portConstraint=eastwest;rotatable=0;whiteSpace=wrap;html=1;" vertex="1" parent="aXAF0FD7jm9cenvR7DQU-107">
          <mxGeometry y="60" width="160" height="30" as="geometry" />
        </mxCell>
        <mxCell id="aXAF0FD7jm9cenvR7DQU-110" value="&lt;b&gt;Atendimento no AME&lt;br&gt;&lt;/b&gt;" style="swimlane;fontStyle=0;childLayout=stackLayout;horizontal=1;startSize=30;horizontalStack=0;resizeParent=1;resizeParentMax=0;resizeLast=0;collapsible=1;marginBottom=0;whiteSpace=wrap;html=1;" vertex="1" parent="1">
          <mxGeometry x="310" y="1010" width="179.5" height="180" as="geometry" />
        </mxCell>
        <mxCell id="aXAF0FD7jm9cenvR7DQU-111" value="Profissional da Equipe" style="text;strokeColor=none;fillColor=none;align=left;verticalAlign=middle;spacingLeft=4;spacingRight=4;overflow=hidden;points=[[0,0.5],[1,0.5]];portConstraint=eastwest;rotatable=0;whiteSpace=wrap;html=1;" vertex="1" parent="aXAF0FD7jm9cenvR7DQU-110">
          <mxGeometry y="30" width="179.5" height="30" as="geometry" />
        </mxCell>
        <mxCell id="aXAF0FD7jm9cenvR7DQU-112" value="Profissional de Fora da Equipe" style="text;strokeColor=none;fillColor=none;align=left;verticalAlign=middle;spacingLeft=4;spacingRight=4;overflow=hidden;points=[[0,0.5],[1,0.5]];portConstraint=eastwest;rotatable=0;whiteSpace=wrap;html=1;" vertex="1" parent="aXAF0FD7jm9cenvR7DQU-110">
          <mxGeometry y="60" width="179.5" height="30" as="geometry" />
        </mxCell>
        <mxCell id="aXAF0FD7jm9cenvR7DQU-113" value="Agendamento TFD" style="text;strokeColor=none;fillColor=none;align=left;verticalAlign=middle;spacingLeft=4;spacingRight=4;overflow=hidden;points=[[0,0.5],[1,0.5]];portConstraint=eastwest;rotatable=0;whiteSpace=wrap;html=1;" vertex="1" parent="aXAF0FD7jm9cenvR7DQU-110">
          <mxGeometry y="90" width="179.5" height="30" as="geometry" />
        </mxCell>
        <mxCell id="aXAF0FD7jm9cenvR7DQU-115" value="Motivo Agendamento TFP" style="text;strokeColor=none;fillColor=none;align=left;verticalAlign=middle;spacingLeft=4;spacingRight=4;overflow=hidden;points=[[0,0.5],[1,0.5]];portConstraint=eastwest;rotatable=0;whiteSpace=wrap;html=1;" vertex="1" parent="aXAF0FD7jm9cenvR7DQU-110">
          <mxGeometry y="120" width="179.5" height="30" as="geometry" />
        </mxCell>
        <mxCell id="aXAF0FD7jm9cenvR7DQU-116" value="Observação" style="text;strokeColor=none;fillColor=none;align=left;verticalAlign=middle;spacingLeft=4;spacingRight=4;overflow=hidden;points=[[0,0.5],[1,0.5]];portConstraint=eastwest;rotatable=0;whiteSpace=wrap;html=1;" vertex="1" parent="aXAF0FD7jm9cenvR7DQU-110">
          <mxGeometry y="150" width="179.5" height="30" as="geometry" />
        </mxCell>
        <mxCell id="aXAF0FD7jm9cenvR7DQU-117" value="&lt;b&gt;Estratificação de Risco&lt;br&gt;&lt;/b&gt;" style="swimlane;fontStyle=0;childLayout=stackLayout;horizontal=1;startSize=30;horizontalStack=0;resizeParent=1;resizeParentMax=0;resizeLast=0;collapsible=1;marginBottom=0;whiteSpace=wrap;html=1;" vertex="1" parent="1">
          <mxGeometry x="690" y="1020" width="160" height="90" as="geometry" />
        </mxCell>
        <mxCell id="aXAF0FD7jm9cenvR7DQU-118" value="Categoria" style="text;strokeColor=none;fillColor=none;align=left;verticalAlign=middle;spacingLeft=4;spacingRight=4;overflow=hidden;points=[[0,0.5],[1,0.5]];portConstraint=eastwest;rotatable=0;whiteSpace=wrap;html=1;" vertex="1" parent="aXAF0FD7jm9cenvR7DQU-117">
          <mxGeometry y="30" width="160" height="30" as="geometry" />
        </mxCell>
        <mxCell id="aXAF0FD7jm9cenvR7DQU-119" value="Motivo" style="text;strokeColor=none;fillColor=none;align=left;verticalAlign=middle;spacingLeft=4;spacingRight=4;overflow=hidden;points=[[0,0.5],[1,0.5]];portConstraint=eastwest;rotatable=0;whiteSpace=wrap;html=1;" vertex="1" parent="aXAF0FD7jm9cenvR7DQU-117">
          <mxGeometry y="60" width="160" height="30" as="geometry" />
        </mxCell>
        <mxCell id="aXAF0FD7jm9cenvR7DQU-120" value="&lt;b&gt;Criança&lt;br&gt;&lt;/b&gt;" style="swimlane;fontStyle=0;childLayout=stackLayout;horizontal=1;startSize=30;horizontalStack=0;resizeParent=1;resizeParentMax=0;resizeLast=0;collapsible=1;marginBottom=0;whiteSpace=wrap;html=1;" vertex="1" parent="1">
          <mxGeometry x="850" y="1200" width="160" height="150" as="geometry" />
        </mxCell>
        <mxCell id="aXAF0FD7jm9cenvR7DQU-121" value="Nome" style="text;strokeColor=none;fillColor=none;align=left;verticalAlign=middle;spacingLeft=4;spacingRight=4;overflow=hidden;points=[[0,0.5],[1,0.5]];portConstraint=eastwest;rotatable=0;whiteSpace=wrap;html=1;" vertex="1" parent="aXAF0FD7jm9cenvR7DQU-120">
          <mxGeometry y="30" width="160" height="30" as="geometry" />
        </mxCell>
        <mxCell id="aXAF0FD7jm9cenvR7DQU-122" value="Data de Nascimento" style="text;strokeColor=none;fillColor=none;align=left;verticalAlign=middle;spacingLeft=4;spacingRight=4;overflow=hidden;points=[[0,0.5],[1,0.5]];portConstraint=eastwest;rotatable=0;whiteSpace=wrap;html=1;" vertex="1" parent="aXAF0FD7jm9cenvR7DQU-120">
          <mxGeometry y="60" width="160" height="30" as="geometry" />
        </mxCell>
        <mxCell id="aXAF0FD7jm9cenvR7DQU-125" value="Numero CIS" style="text;strokeColor=none;fillColor=none;align=left;verticalAlign=middle;spacingLeft=4;spacingRight=4;overflow=hidden;points=[[0,0.5],[1,0.5]];portConstraint=eastwest;rotatable=0;whiteSpace=wrap;html=1;" vertex="1" parent="aXAF0FD7jm9cenvR7DQU-120">
          <mxGeometry y="90" width="160" height="30" as="geometry" />
        </mxCell>
        <mxCell id="aXAF0FD7jm9cenvR7DQU-124" value="Observação" style="text;strokeColor=none;fillColor=none;align=left;verticalAlign=middle;spacingLeft=4;spacingRight=4;overflow=hidden;points=[[0,0.5],[1,0.5]];portConstraint=eastwest;rotatable=0;whiteSpace=wrap;html=1;" vertex="1" parent="aXAF0FD7jm9cenvR7DQU-120">
          <mxGeometry y="120" width="160" height="30" as="geometry" />
        </mxCell>
        <mxCell id="aXAF0FD7jm9cenvR7DQU-126" value="&lt;b&gt;Pronto Atendimento&lt;br&gt;&lt;/b&gt;" style="swimlane;fontStyle=0;childLayout=stackLayout;horizontal=1;startSize=30;horizontalStack=0;resizeParent=1;resizeParentMax=0;resizeLast=0;collapsible=1;marginBottom=0;whiteSpace=wrap;html=1;" vertex="1" parent="1">
          <mxGeometry x="690" y="825" width="160" height="120" as="geometry" />
        </mxCell>
        <mxCell id="aXAF0FD7jm9cenvR7DQU-127" value="Numero do Atendimento" style="text;strokeColor=none;fillColor=none;align=left;verticalAlign=middle;spacingLeft=4;spacingRight=4;overflow=hidden;points=[[0,0.5],[1,0.5]];portConstraint=eastwest;rotatable=0;whiteSpace=wrap;html=1;" vertex="1" parent="aXAF0FD7jm9cenvR7DQU-126">
          <mxGeometry y="30" width="160" height="30" as="geometry" />
        </mxCell>
        <mxCell id="aXAF0FD7jm9cenvR7DQU-129" value="Data do Atendimento" style="text;strokeColor=none;fillColor=none;align=left;verticalAlign=middle;spacingLeft=4;spacingRight=4;overflow=hidden;points=[[0,0.5],[1,0.5]];portConstraint=eastwest;rotatable=0;whiteSpace=wrap;html=1;" vertex="1" parent="aXAF0FD7jm9cenvR7DQU-126">
          <mxGeometry y="60" width="160" height="30" as="geometry" />
        </mxCell>
        <mxCell id="aXAF0FD7jm9cenvR7DQU-130" value="&lt;div&gt;Data da Alta&lt;/div&gt;" style="text;strokeColor=none;fillColor=none;align=left;verticalAlign=middle;spacingLeft=4;spacingRight=4;overflow=hidden;points=[[0,0.5],[1,0.5]];portConstraint=eastwest;rotatable=0;whiteSpace=wrap;html=1;" vertex="1" parent="aXAF0FD7jm9cenvR7DQU-126">
          <mxGeometry y="90" width="160" height="30" as="geometry" />
        </mxCell>
        <mxCell id="aXAF0FD7jm9cenvR7DQU-131" value="&lt;b&gt;Parto&lt;br&gt;&lt;/b&gt;" style="swimlane;fontStyle=0;childLayout=stackLayout;horizontal=1;startSize=30;horizontalStack=0;resizeParent=1;resizeParentMax=0;resizeLast=0;collapsible=1;marginBottom=0;whiteSpace=wrap;html=1;" vertex="1" parent="1">
          <mxGeometry x="850" y="470" width="160" height="270" as="geometry" />
        </mxCell>
        <mxCell id="aXAF0FD7jm9cenvR7DQU-132" value="Forma de Encaminhamento" style="text;strokeColor=none;fillColor=none;align=left;verticalAlign=middle;spacingLeft=4;spacingRight=4;overflow=hidden;points=[[0,0.5],[1,0.5]];portConstraint=eastwest;rotatable=0;whiteSpace=wrap;html=1;" vertex="1" parent="aXAF0FD7jm9cenvR7DQU-131">
          <mxGeometry y="30" width="160" height="30" as="geometry" />
        </mxCell>
        <mxCell id="aXAF0FD7jm9cenvR7DQU-133" value="Data do Parto" style="text;strokeColor=none;fillColor=none;align=left;verticalAlign=middle;spacingLeft=4;spacingRight=4;overflow=hidden;points=[[0,0.5],[1,0.5]];portConstraint=eastwest;rotatable=0;whiteSpace=wrap;html=1;" vertex="1" parent="aXAF0FD7jm9cenvR7DQU-131">
          <mxGeometry y="60" width="160" height="30" as="geometry" />
        </mxCell>
        <mxCell id="aXAF0FD7jm9cenvR7DQU-135" value="Tipo de Parto" style="text;strokeColor=none;fillColor=none;align=left;verticalAlign=middle;spacingLeft=4;spacingRight=4;overflow=hidden;points=[[0,0.5],[1,0.5]];portConstraint=eastwest;rotatable=0;whiteSpace=wrap;html=1;" vertex="1" parent="aXAF0FD7jm9cenvR7DQU-131">
          <mxGeometry y="90" width="160" height="30" as="geometry" />
        </mxCell>
        <mxCell id="aXAF0FD7jm9cenvR7DQU-136" value="Data da Primeira Consulta" style="text;strokeColor=none;fillColor=none;align=left;verticalAlign=middle;spacingLeft=4;spacingRight=4;overflow=hidden;points=[[0,0.5],[1,0.5]];portConstraint=eastwest;rotatable=0;whiteSpace=wrap;html=1;" vertex="1" parent="aXAF0FD7jm9cenvR7DQU-131">
          <mxGeometry y="120" width="160" height="30" as="geometry" />
        </mxCell>
        <mxCell id="aXAF0FD7jm9cenvR7DQU-137" value="Data Exame" style="text;strokeColor=none;fillColor=none;align=left;verticalAlign=middle;spacingLeft=4;spacingRight=4;overflow=hidden;points=[[0,0.5],[1,0.5]];portConstraint=eastwest;rotatable=0;whiteSpace=wrap;html=1;" vertex="1" parent="aXAF0FD7jm9cenvR7DQU-131">
          <mxGeometry y="150" width="160" height="30" as="geometry" />
        </mxCell>
        <mxCell id="aXAF0FD7jm9cenvR7DQU-139" value="Ocorrência do Nascimento" style="text;strokeColor=none;fillColor=none;align=left;verticalAlign=middle;spacingLeft=4;spacingRight=4;overflow=hidden;points=[[0,0.5],[1,0.5]];portConstraint=eastwest;rotatable=0;whiteSpace=wrap;html=1;" vertex="1" parent="aXAF0FD7jm9cenvR7DQU-131">
          <mxGeometry y="180" width="160" height="30" as="geometry" />
        </mxCell>
        <mxCell id="aXAF0FD7jm9cenvR7DQU-140" value="Apgar 1°min" style="text;strokeColor=none;fillColor=none;align=left;verticalAlign=middle;spacingLeft=4;spacingRight=4;overflow=hidden;points=[[0,0.5],[1,0.5]];portConstraint=eastwest;rotatable=0;whiteSpace=wrap;html=1;" vertex="1" parent="aXAF0FD7jm9cenvR7DQU-131">
          <mxGeometry y="210" width="160" height="30" as="geometry" />
        </mxCell>
        <mxCell id="aXAF0FD7jm9cenvR7DQU-141" value="Apgar 5°min" style="text;strokeColor=none;fillColor=none;align=left;verticalAlign=middle;spacingLeft=4;spacingRight=4;overflow=hidden;points=[[0,0.5],[1,0.5]];portConstraint=eastwest;rotatable=0;whiteSpace=wrap;html=1;" vertex="1" parent="aXAF0FD7jm9cenvR7DQU-131">
          <mxGeometry y="240" width="160" height="30" as="geometry" />
        </mxCell>
        <mxCell id="aXAF0FD7jm9cenvR7DQU-142" value="&lt;b&gt;Tratamento Sífilis&lt;br&gt;&lt;/b&gt;" style="swimlane;fontStyle=0;childLayout=stackLayout;horizontal=1;startSize=30;horizontalStack=0;resizeParent=1;resizeParentMax=0;resizeLast=0;collapsible=1;marginBottom=0;whiteSpace=wrap;html=1;" vertex="1" parent="1">
          <mxGeometry x="670" y="350" width="160" height="150" as="geometry" />
        </mxCell>
        <mxCell id="aXAF0FD7jm9cenvR7DQU-143" value="VDRL Reagente" style="text;strokeColor=none;fillColor=none;align=left;verticalAlign=middle;spacingLeft=4;spacingRight=4;overflow=hidden;points=[[0,0.5],[1,0.5]];portConstraint=eastwest;rotatable=0;whiteSpace=wrap;html=1;" vertex="1" parent="aXAF0FD7jm9cenvR7DQU-142">
          <mxGeometry y="30" width="160" height="30" as="geometry" />
        </mxCell>
        <mxCell id="aXAF0FD7jm9cenvR7DQU-144" value="Data Dose" style="text;strokeColor=none;fillColor=none;align=left;verticalAlign=middle;spacingLeft=4;spacingRight=4;overflow=hidden;points=[[0,0.5],[1,0.5]];portConstraint=eastwest;rotatable=0;whiteSpace=wrap;html=1;" vertex="1" parent="aXAF0FD7jm9cenvR7DQU-142">
          <mxGeometry y="60" width="160" height="30" as="geometry" />
        </mxCell>
        <mxCell id="aXAF0FD7jm9cenvR7DQU-149" value="Nome do Parceiro" style="text;strokeColor=none;fillColor=none;align=left;verticalAlign=middle;spacingLeft=4;spacingRight=4;overflow=hidden;points=[[0,0.5],[1,0.5]];portConstraint=eastwest;rotatable=0;whiteSpace=wrap;html=1;" vertex="1" parent="aXAF0FD7jm9cenvR7DQU-142">
          <mxGeometry y="90" width="160" height="30" as="geometry" />
        </mxCell>
        <mxCell id="aXAF0FD7jm9cenvR7DQU-150" value="Tratamento do Parceiro" style="text;strokeColor=none;fillColor=none;align=left;verticalAlign=middle;spacingLeft=4;spacingRight=4;overflow=hidden;points=[[0,0.5],[1,0.5]];portConstraint=eastwest;rotatable=0;whiteSpace=wrap;html=1;" vertex="1" parent="aXAF0FD7jm9cenvR7DQU-142">
          <mxGeometry y="120" width="160" height="30" as="geometry" />
        </mxCell>
        <mxCell id="aXAF0FD7jm9cenvR7DQU-151" value="&lt;b&gt;Classificação de Risco&lt;br&gt;&lt;/b&gt;" style="swimlane;fontStyle=0;childLayout=stackLayout;horizontal=1;startSize=30;horizontalStack=0;resizeParent=1;resizeParentMax=0;resizeLast=0;collapsible=1;marginBottom=0;whiteSpace=wrap;html=1;" vertex="1" parent="1">
          <mxGeometry x="850" y="310" width="160" height="60" as="geometry" />
        </mxCell>
        <mxCell id="aXAF0FD7jm9cenvR7DQU-155" value="Categoria" style="text;strokeColor=none;fillColor=none;align=left;verticalAlign=middle;spacingLeft=4;spacingRight=4;overflow=hidden;points=[[0,0.5],[1,0.5]];portConstraint=eastwest;rotatable=0;whiteSpace=wrap;html=1;" vertex="1" parent="aXAF0FD7jm9cenvR7DQU-151">
          <mxGeometry y="30" width="160" height="30" as="geometry" />
        </mxCell>
        <mxCell id="aXAF0FD7jm9cenvR7DQU-167" value="" style="endArrow=classic;html=1;rounded=0;entryX=0.25;entryY=0;entryDx=0;entryDy=0;edgeStyle=orthogonalEdgeStyle;exitX=0.99;exitY=0.685;exitDx=0;exitDy=0;exitPerimeter=0;" edge="1" parent="1" source="aXAF0FD7jm9cenvR7DQU-8" target="aXAF0FD7jm9cenvR7DQU-64">
          <mxGeometry relative="1" as="geometry">
            <mxPoint x="410" y="290" as="sourcePoint" />
            <mxPoint x="650" y="290" as="targetPoint" />
          </mxGeometry>
        </mxCell>
        <mxCell id="aXAF0FD7jm9cenvR7DQU-168" value="Reside em" style="edgeLabel;resizable=0;html=1;;align=center;verticalAlign=middle;" connectable="0" vertex="1" parent="aXAF0FD7jm9cenvR7DQU-167">
          <mxGeometry relative="1" as="geometry">
            <mxPoint y="-23" as="offset" />
          </mxGeometry>
        </mxCell>
        <mxCell id="aXAF0FD7jm9cenvR7DQU-169" value="1.1" style="edgeLabel;resizable=0;html=1;;align=left;verticalAlign=bottom;" connectable="0" vertex="1" parent="aXAF0FD7jm9cenvR7DQU-167">
          <mxGeometry x="-1" relative="1" as="geometry">
            <mxPoint x="10" as="offset" />
          </mxGeometry>
        </mxCell>
        <mxCell id="aXAF0FD7jm9cenvR7DQU-170" value="0.*" style="edgeLabel;resizable=0;html=1;;align=right;verticalAlign=bottom;rotation=0;" connectable="0" vertex="1" parent="aXAF0FD7jm9cenvR7DQU-167">
          <mxGeometry x="1" relative="1" as="geometry">
            <mxPoint x="18" y="-10" as="offset" />
          </mxGeometry>
        </mxCell>
        <mxCell id="aXAF0FD7jm9cenvR7DQU-173" value="" style="endArrow=classic;html=1;rounded=0;entryX=0;entryY=0.25;entryDx=0;entryDy=0;edgeStyle=orthogonalEdgeStyle;exitX=1;exitY=0.25;exitDx=0;exitDy=0;" edge="1" parent="1" source="aXAF0FD7jm9cenvR7DQU-7" target="aXAF0FD7jm9cenvR7DQU-55">
          <mxGeometry relative="1" as="geometry">
            <mxPoint x="408" y="311" as="sourcePoint" />
            <mxPoint x="553" y="540" as="targetPoint" />
          </mxGeometry>
        </mxCell>
        <mxCell id="aXAF0FD7jm9cenvR7DQU-174" value="Reside em" style="edgeLabel;resizable=0;html=1;;align=center;verticalAlign=middle;" connectable="0" vertex="1" parent="aXAF0FD7jm9cenvR7DQU-173">
          <mxGeometry relative="1" as="geometry" />
        </mxCell>
        <mxCell id="aXAF0FD7jm9cenvR7DQU-175" value="1.1" style="edgeLabel;resizable=0;html=1;;align=left;verticalAlign=bottom;" connectable="0" vertex="1" parent="aXAF0FD7jm9cenvR7DQU-173">
          <mxGeometry x="-1" relative="1" as="geometry">
            <mxPoint x="10" as="offset" />
          </mxGeometry>
        </mxCell>
        <mxCell id="aXAF0FD7jm9cenvR7DQU-176" value="0.*" style="edgeLabel;resizable=0;html=1;;align=right;verticalAlign=bottom;rotation=0;" connectable="0" vertex="1" parent="aXAF0FD7jm9cenvR7DQU-173">
          <mxGeometry x="1" relative="1" as="geometry">
            <mxPoint x="-10" y="20" as="offset" />
          </mxGeometry>
        </mxCell>
        <mxCell id="aXAF0FD7jm9cenvR7DQU-178" value="" style="endArrow=classic;html=1;rounded=0;entryX=0.75;entryY=0;entryDx=0;entryDy=0;edgeStyle=orthogonalEdgeStyle;exitX=0;exitY=0.5;exitDx=0;exitDy=0;" edge="1" parent="1" source="aXAF0FD7jm9cenvR7DQU-144" target="aXAF0FD7jm9cenvR7DQU-64">
          <mxGeometry relative="1" as="geometry">
            <mxPoint x="408" y="311" as="sourcePoint" />
            <mxPoint x="553" y="540" as="targetPoint" />
            <Array as="points">
              <mxPoint x="627" y="425" />
            </Array>
          </mxGeometry>
        </mxCell>
        <mxCell id="aXAF0FD7jm9cenvR7DQU-179" value="Faz" style="edgeLabel;resizable=0;html=1;;align=center;verticalAlign=middle;" connectable="0" vertex="1" parent="aXAF0FD7jm9cenvR7DQU-178">
          <mxGeometry relative="1" as="geometry">
            <mxPoint y="-16" as="offset" />
          </mxGeometry>
        </mxCell>
        <mxCell id="aXAF0FD7jm9cenvR7DQU-180" value="0.*" style="edgeLabel;resizable=0;html=1;;align=left;verticalAlign=bottom;" connectable="0" vertex="1" parent="aXAF0FD7jm9cenvR7DQU-178">
          <mxGeometry x="-1" relative="1" as="geometry">
            <mxPoint x="-20" as="offset" />
          </mxGeometry>
        </mxCell>
        <mxCell id="aXAF0FD7jm9cenvR7DQU-181" value="1.1" style="edgeLabel;resizable=0;html=1;;align=right;verticalAlign=bottom;rotation=0;" connectable="0" vertex="1" parent="aXAF0FD7jm9cenvR7DQU-178">
          <mxGeometry x="1" relative="1" as="geometry">
            <mxPoint x="18" y="-10" as="offset" />
          </mxGeometry>
        </mxCell>
        <mxCell id="aXAF0FD7jm9cenvR7DQU-187" value="" style="endArrow=classic;html=1;rounded=0;entryX=1;entryY=0.5;entryDx=0;entryDy=0;edgeStyle=orthogonalEdgeStyle;" edge="1" parent="1" source="aXAF0FD7jm9cenvR7DQU-131" target="aXAF0FD7jm9cenvR7DQU-65">
          <mxGeometry relative="1" as="geometry">
            <mxPoint x="720" y="566" as="sourcePoint" />
            <mxPoint x="865" y="794.5" as="targetPoint" />
          </mxGeometry>
        </mxCell>
        <mxCell id="aXAF0FD7jm9cenvR7DQU-188" value="Realiza" style="edgeLabel;resizable=0;html=1;;align=center;verticalAlign=middle;" connectable="0" vertex="1" parent="aXAF0FD7jm9cenvR7DQU-187">
          <mxGeometry relative="1" as="geometry">
            <mxPoint y="-5" as="offset" />
          </mxGeometry>
        </mxCell>
        <mxCell id="aXAF0FD7jm9cenvR7DQU-189" value="0.*" style="edgeLabel;resizable=0;html=1;;align=left;verticalAlign=bottom;" connectable="0" vertex="1" parent="aXAF0FD7jm9cenvR7DQU-187">
          <mxGeometry x="-1" relative="1" as="geometry">
            <mxPoint x="-20" y="-5" as="offset" />
          </mxGeometry>
        </mxCell>
        <mxCell id="aXAF0FD7jm9cenvR7DQU-190" value="1.1" style="edgeLabel;resizable=0;html=1;;align=right;verticalAlign=bottom;rotation=0;" connectable="0" vertex="1" parent="aXAF0FD7jm9cenvR7DQU-187">
          <mxGeometry x="1" relative="1" as="geometry">
            <mxPoint x="20" y="-5" as="offset" />
          </mxGeometry>
        </mxCell>
        <mxCell id="aXAF0FD7jm9cenvR7DQU-193" value="" style="endArrow=classic;html=1;rounded=0;edgeStyle=orthogonalEdgeStyle;" edge="1" parent="1" source="aXAF0FD7jm9cenvR7DQU-131" target="aXAF0FD7jm9cenvR7DQU-151">
          <mxGeometry relative="1" as="geometry">
            <mxPoint x="860" y="615" as="sourcePoint" />
            <mxPoint x="680" y="615" as="targetPoint" />
          </mxGeometry>
        </mxCell>
        <mxCell id="aXAF0FD7jm9cenvR7DQU-194" value="Realiza" style="edgeLabel;resizable=0;html=1;;align=center;verticalAlign=middle;" connectable="0" vertex="1" parent="aXAF0FD7jm9cenvR7DQU-193">
          <mxGeometry relative="1" as="geometry">
            <mxPoint y="-5" as="offset" />
          </mxGeometry>
        </mxCell>
        <mxCell id="aXAF0FD7jm9cenvR7DQU-195" value="0.*" style="edgeLabel;resizable=0;html=1;;align=left;verticalAlign=bottom;" connectable="0" vertex="1" parent="aXAF0FD7jm9cenvR7DQU-193">
          <mxGeometry x="-1" relative="1" as="geometry">
            <mxPoint x="-20" as="offset" />
          </mxGeometry>
        </mxCell>
        <mxCell id="aXAF0FD7jm9cenvR7DQU-196" value="1.1" style="edgeLabel;resizable=0;html=1;;align=right;verticalAlign=bottom;rotation=0;" connectable="0" vertex="1" parent="aXAF0FD7jm9cenvR7DQU-193">
          <mxGeometry x="1" relative="1" as="geometry">
            <mxPoint x="20" y="20" as="offset" />
          </mxGeometry>
        </mxCell>
        <mxCell id="aXAF0FD7jm9cenvR7DQU-198" value="" style="endArrow=classic;html=1;rounded=0;entryX=1;entryY=0.5;entryDx=0;entryDy=0;edgeStyle=orthogonalEdgeStyle;" edge="1" parent="1" source="aXAF0FD7jm9cenvR7DQU-126" target="aXAF0FD7jm9cenvR7DQU-78">
          <mxGeometry relative="1" as="geometry">
            <mxPoint x="860" y="790" as="sourcePoint" />
            <mxPoint x="680" y="790" as="targetPoint" />
          </mxGeometry>
        </mxCell>
        <mxCell id="aXAF0FD7jm9cenvR7DQU-199" value="Tem" style="edgeLabel;resizable=0;html=1;;align=center;verticalAlign=middle;" connectable="0" vertex="1" parent="aXAF0FD7jm9cenvR7DQU-198">
          <mxGeometry relative="1" as="geometry">
            <mxPoint x="15" y="12" as="offset" />
          </mxGeometry>
        </mxCell>
        <mxCell id="aXAF0FD7jm9cenvR7DQU-200" value="0.*" style="edgeLabel;resizable=0;html=1;;align=left;verticalAlign=bottom;" connectable="0" vertex="1" parent="aXAF0FD7jm9cenvR7DQU-198">
          <mxGeometry x="-1" relative="1" as="geometry">
            <mxPoint as="offset" />
          </mxGeometry>
        </mxCell>
        <mxCell id="aXAF0FD7jm9cenvR7DQU-201" value="1.1" style="edgeLabel;resizable=0;html=1;;align=right;verticalAlign=bottom;rotation=0;" connectable="0" vertex="1" parent="aXAF0FD7jm9cenvR7DQU-198">
          <mxGeometry x="1" relative="1" as="geometry">
            <mxPoint x="20" y="-5" as="offset" />
          </mxGeometry>
        </mxCell>
        <mxCell id="aXAF0FD7jm9cenvR7DQU-204" value="" style="endArrow=classic;html=1;rounded=0;entryX=0.5;entryY=0;entryDx=0;entryDy=0;edgeStyle=orthogonalEdgeStyle;" edge="1" parent="1" source="aXAF0FD7jm9cenvR7DQU-126" target="aXAF0FD7jm9cenvR7DQU-117">
          <mxGeometry relative="1" as="geometry">
            <mxPoint x="780" y="835" as="sourcePoint" />
            <mxPoint x="680" y="765" as="targetPoint" />
          </mxGeometry>
        </mxCell>
        <mxCell id="aXAF0FD7jm9cenvR7DQU-205" value="Tem" style="edgeLabel;resizable=0;html=1;;align=center;verticalAlign=middle;" connectable="0" vertex="1" parent="aXAF0FD7jm9cenvR7DQU-204">
          <mxGeometry relative="1" as="geometry">
            <mxPoint y="-3" as="offset" />
          </mxGeometry>
        </mxCell>
        <mxCell id="aXAF0FD7jm9cenvR7DQU-206" value="0.*" style="edgeLabel;resizable=0;html=1;;align=left;verticalAlign=bottom;" connectable="0" vertex="1" parent="aXAF0FD7jm9cenvR7DQU-204">
          <mxGeometry x="-1" relative="1" as="geometry">
            <mxPoint x="-20" y="25" as="offset" />
          </mxGeometry>
        </mxCell>
        <mxCell id="aXAF0FD7jm9cenvR7DQU-207" value="1.1" style="edgeLabel;resizable=0;html=1;;align=right;verticalAlign=bottom;rotation=0;" connectable="0" vertex="1" parent="aXAF0FD7jm9cenvR7DQU-204">
          <mxGeometry x="1" relative="1" as="geometry">
            <mxPoint x="20" as="offset" />
          </mxGeometry>
        </mxCell>
        <mxCell id="aXAF0FD7jm9cenvR7DQU-213" value="" style="endArrow=classic;html=1;rounded=0;entryX=1;entryY=0.25;entryDx=0;entryDy=0;edgeStyle=orthogonalEdgeStyle;exitX=0.246;exitY=1.003;exitDx=0;exitDy=0;exitPerimeter=0;" edge="1" parent="1" source="aXAF0FD7jm9cenvR7DQU-141" target="aXAF0FD7jm9cenvR7DQU-117">
          <mxGeometry relative="1" as="geometry">
            <mxPoint x="780" y="955" as="sourcePoint" />
            <mxPoint x="780" y="1030" as="targetPoint" />
          </mxGeometry>
        </mxCell>
        <mxCell id="aXAF0FD7jm9cenvR7DQU-214" value="Tem" style="edgeLabel;resizable=0;html=1;;align=center;verticalAlign=middle;" connectable="0" vertex="1" parent="aXAF0FD7jm9cenvR7DQU-213">
          <mxGeometry relative="1" as="geometry">
            <mxPoint y="-3" as="offset" />
          </mxGeometry>
        </mxCell>
        <mxCell id="aXAF0FD7jm9cenvR7DQU-215" value="0.*" style="edgeLabel;resizable=0;html=1;;align=left;verticalAlign=bottom;" connectable="0" vertex="1" parent="aXAF0FD7jm9cenvR7DQU-213">
          <mxGeometry x="-1" relative="1" as="geometry">
            <mxPoint x="-20" y="20" as="offset" />
          </mxGeometry>
        </mxCell>
        <mxCell id="aXAF0FD7jm9cenvR7DQU-216" value="1.1" style="edgeLabel;resizable=0;html=1;;align=right;verticalAlign=bottom;rotation=0;" connectable="0" vertex="1" parent="aXAF0FD7jm9cenvR7DQU-213">
          <mxGeometry x="1" relative="1" as="geometry">
            <mxPoint x="30" as="offset" />
          </mxGeometry>
        </mxCell>
        <mxCell id="aXAF0FD7jm9cenvR7DQU-217" value="" style="endArrow=classic;html=1;rounded=0;edgeStyle=orthogonalEdgeStyle;exitX=0.75;exitY=0;exitDx=0;exitDy=0;entryX=0.748;entryY=1.003;entryDx=0;entryDy=0;entryPerimeter=0;" edge="1" parent="1" source="aXAF0FD7jm9cenvR7DQU-120" target="aXAF0FD7jm9cenvR7DQU-141">
          <mxGeometry relative="1" as="geometry">
            <mxPoint x="957" y="1090" as="sourcePoint" />
            <mxPoint x="913" y="750" as="targetPoint" />
          </mxGeometry>
        </mxCell>
        <mxCell id="aXAF0FD7jm9cenvR7DQU-218" value="Nasce" style="edgeLabel;resizable=0;html=1;;align=center;verticalAlign=middle;" connectable="0" vertex="1" parent="aXAF0FD7jm9cenvR7DQU-217">
          <mxGeometry relative="1" as="geometry">
            <mxPoint y="-3" as="offset" />
          </mxGeometry>
        </mxCell>
        <mxCell id="aXAF0FD7jm9cenvR7DQU-219" value="0.*" style="edgeLabel;resizable=0;html=1;;align=left;verticalAlign=bottom;" connectable="0" vertex="1" parent="aXAF0FD7jm9cenvR7DQU-217">
          <mxGeometry x="-1" relative="1" as="geometry">
            <mxPoint as="offset" />
          </mxGeometry>
        </mxCell>
        <mxCell id="aXAF0FD7jm9cenvR7DQU-220" value="1.1" style="edgeLabel;resizable=0;html=1;;align=right;verticalAlign=bottom;rotation=0;" connectable="0" vertex="1" parent="aXAF0FD7jm9cenvR7DQU-217">
          <mxGeometry x="1" relative="1" as="geometry">
            <mxPoint x="30" as="offset" />
          </mxGeometry>
        </mxCell>
        <mxCell id="aXAF0FD7jm9cenvR7DQU-221" value="" style="endArrow=classic;html=1;rounded=0;edgeStyle=orthogonalEdgeStyle;exitX=0.25;exitY=0;exitDx=0;exitDy=0;entryX=1.004;entryY=0.251;entryDx=0;entryDy=0;entryPerimeter=0;" edge="1" parent="1" source="aXAF0FD7jm9cenvR7DQU-120" target="aXAF0FD7jm9cenvR7DQU-119">
          <mxGeometry relative="1" as="geometry">
            <mxPoint x="980" y="1210" as="sourcePoint" />
            <mxPoint x="900" y="1050" as="targetPoint" />
          </mxGeometry>
        </mxCell>
        <mxCell id="aXAF0FD7jm9cenvR7DQU-222" value="Tem" style="edgeLabel;resizable=0;html=1;;align=center;verticalAlign=middle;" connectable="0" vertex="1" parent="aXAF0FD7jm9cenvR7DQU-221">
          <mxGeometry relative="1" as="geometry">
            <mxPoint y="-3" as="offset" />
          </mxGeometry>
        </mxCell>
        <mxCell id="aXAF0FD7jm9cenvR7DQU-223" value="0.*" style="edgeLabel;resizable=0;html=1;;align=left;verticalAlign=bottom;" connectable="0" vertex="1" parent="aXAF0FD7jm9cenvR7DQU-221">
          <mxGeometry x="-1" relative="1" as="geometry">
            <mxPoint as="offset" />
          </mxGeometry>
        </mxCell>
        <mxCell id="aXAF0FD7jm9cenvR7DQU-224" value="1.1" style="edgeLabel;resizable=0;html=1;;align=right;verticalAlign=bottom;rotation=0;" connectable="0" vertex="1" parent="aXAF0FD7jm9cenvR7DQU-221">
          <mxGeometry x="1" relative="1" as="geometry">
            <mxPoint x="30" as="offset" />
          </mxGeometry>
        </mxCell>
      </root>
    </mxGraphModel>
  </diagram>
</mxfile>
